<?xml version="1.0" encoding="UTF-8"?>
<svg width="1084px" height="138px" viewBox="0 0 1084 138" version="1.1" xmlns="http://www.w3.org/2000/svg" xmlns:xlink="http://www.w3.org/1999/xlink">
    <!-- Generator: Sketch 64 (93537) - https://sketch.com -->
    <title>20-chart-icons-freepik</title>
    <desc>Created with Sketch.</desc>
    <defs>
        <path d="M56.2477596,127.678356 C45.1334408,126.383727 34.0758054,121.864519 24.9320792,114.879769 C22.2066381,112.797846 16.8264256,107.560013 14.5065513,104.730139 C5.14460467,93.3100544 -0.00519995137,78.8128012 3.94004965e-06,63.8926534 C0.00155894322,59.4489692 0.800020763,52.7710624 1.80727197,48.777668 C6.18061128,31.4389308 17.213965,16.8220397 32.4561714,8.17427275 C58.8527751,-6.80201564 92.3676875,-0.733311341 111.897203,22.559038 C125.536284,38.8260145 130.316205,60.7601324 124.682274,81.22718 C117.031895,109.019626 91.7049163,128.26762 63.141168,127.997186 C60.6529837,127.97363 57.5509509,127.830156 56.2477596,127.678356 Z M85.7815402,122.907859 C92.1016543,120.605901 99.0490217,116.403275 105.301567,111.09974 C109.923598,107.179242 114.628296,101.259943 118.717362,94.2204263 C121.242326,89.8735765 121.439097,88.9900354 120.1073,87.9792635 C119.191005,87.2838352 119.169308,87.2829504 118.125822,87.8984773 C116.107856,89.088831 113.435414,90.3952732 113.009908,90.3994297 C112.774416,90.4017308 112.330288,89.9656206 112.02296,89.4302955 C110.923472,87.5151439 108.990256,87.2779058 106.502904,88.7528931 C104.474779,89.9555611 104.175216,89.9648349 102.570358,88.8746435 L101.291582,88.0059623 L99.8428907,88.7095716 C97.9416201,89.632994 97.4967586,89.598418 96.8530657,88.4771998 L96.315722,87.541222 L93.978774,88.700519 C92.693449,89.3381326 90.9762642,89.9450295 90.1628017,90.04918 C88.868811,90.2148529 88.648616,90.3624437 88.4026816,91.2289724 C88.2480735,91.7737099 87.9678232,92.6650985 87.7798966,93.2098359 C87.0749166,95.2533772 87.0856133,95.9100797 87.8323991,96.4329847 L88.5442912,96.9314591 L87.3127501,98.8673042 C86.0344725,100.876616 84.7243757,102.503173 81.4719454,106.119001 C80.2933626,107.42927 79.651169,108.402161 79.8001795,108.651644 C79.9332522,108.874448 80.9976623,110.125393 82.1655385,111.431525 C84.3247546,113.84635 85.4390946,114.504118 87.3708932,114.504118 C90.5802098,114.504118 90.2611787,115.48047 85.4497054,120.383675 C83.2246713,122.651129 81.7014104,124.397138 82.0646813,124.263698 C82.4279522,124.130253 84.1005372,123.520128 85.7815402,122.907859 Z M83.2205432,97.0064909 C84.0047988,96.2224784 84.1492816,95.3825097 83.3917792,96.0109882 C83.0002624,96.3358168 82.5675242,96.2964834 81.2256412,95.8141003 C80.3033559,95.4825532 79.3944719,95.0254393 79.205898,94.7982904 C79.0173208,94.5711414 78.8207285,93.4381106 78.7690185,92.2804445 C78.6521609,89.6641035 78.2398518,88.8653764 76.8660505,88.5940146 C73.814225,87.9911949 73.4543656,87.4882603 73.7956057,84.3027908 C74.066728,81.7718679 73.6279034,81.1570475 71.5557732,81.1646375 C69.7967331,81.1710819 69.4943794,81.3886699 69.227656,82.8400386 C68.9067623,84.5861863 67.6973246,85.5911543 66.2076399,85.349489 C64.5651899,85.0830364 62.104416,83.2284298 60.9791713,81.4089572 C60.0604064,79.9233459 60.0436299,79.8128269 60.2728736,76.7560871 L60.5076952,73.6249758 L61.9758148,72.5709782 C62.7832801,71.9912818 64.2898569,71.3188083 65.3237655,71.076595 C67.050785,70.6720069 67.2923832,70.688207 68.295777,71.2758797 C69.6433469,72.0651317 69.6804468,72.065102 69.6804468,71.2747506 C69.6804468,70.4025368 69.9365791,70.2897993 73.0669834,69.7841575 C74.5646436,69.5422478 76.1131187,69.2399218 76.5080404,69.1123245 C77.0826061,68.9266846 77.3212388,69.0681248 77.7023264,69.8201894 C77.9642646,70.3371122 78.278768,71.2800263 78.4012233,71.9155534 C78.5236819,72.5510804 79.0470859,73.5655499 79.5643473,74.1699312 L80.5048193,75.2688053 L81.037064,74.5091508 C81.7861913,73.4399533 81.7002249,72.0213282 80.7436963,69.668026 C80.2896077,68.550852 79.9180807,67.3891647 79.9180807,67.0864921 C79.9180807,66.5145475 81.6097572,64.2868618 83.4671381,62.4129121 C84.3691958,61.5028077 84.5415282,61.0833367 84.5415282,59.7977563 C84.5415282,58.8309563 84.3383211,58.0421005 83.9902217,57.6575753 C83.4739214,57.0872451 83.4782674,57.0198099 84.0586818,56.595532 C84.3995521,56.3463592 84.8441263,55.6430371 85.0466234,55.0325977 C85.3021613,54.262263 85.9876502,53.525768 87.2872683,52.6252378 C89.0508922,51.4031837 89.1284043,51.29315 88.6207069,50.7323246 C88.1193435,50.1784983 88.1368367,50.0543477 88.8710104,48.9558235 C89.5697983,47.9102445 89.7856505,47.7939811 90.7526875,47.9423081 C92.344207,48.1864231 92.7765753,47.898224 93.0102179,46.4375419 C93.1907999,45.3085949 93.3895321,45.0639121 94.4801803,44.6276533 C95.6191171,44.1720844 95.7229498,44.0313143 95.5516412,43.1750465 C95.1210925,41.0229571 95.6730067,40.4498075 98.8579808,39.7415266 L99.79946,39.5321593 L97.9751863,38.2262288 C96.9718355,37.5079677 96.0785061,36.9202983 95.99001,36.9202983 C95.901514,36.9202983 95.2287759,37.8705615 94.4950381,39.0319946 C93.23964,41.0191605 91.6627174,42.5327449 90.8477885,42.5327449 C90.6487821,42.5327449 90.4859608,42.3963294 90.4859608,42.2296034 C90.4859608,42.0628742 90.3982705,41.6980189 90.2910957,41.4188096 C90.1665301,41.0942913 90.6346509,40.3651817 91.5887555,39.3976884 C94.3128313,36.6353775 93.9363176,34.910369 90.2482529,33.2561598 C88.6838037,32.5544551 87.5315844,31.7070816 86.1289658,30.2267216 C84.7705045,28.792965 84.2443198,28.4008966 84.3888785,28.9301513 C84.5028498,29.3474179 84.4196046,29.9014139 84.2038878,30.1612534 C83.7108202,30.75518 82.879881,30.3721374 81.2161928,28.7840035 C80.271923,27.8826159 79.6211794,27.5917796 77.9446744,27.3218701 C75.1605069,26.8736321 74.5095519,27.1238319 75.7946755,28.1482368 C76.6300268,28.8141176 76.7011057,28.9912854 76.3180299,29.4527229 C75.9578633,29.8865631 75.9517142,30.17244 76.2852497,30.9774094 C76.5110225,31.5223109 76.8024747,31.9681396 76.932922,31.9681396 C77.2591327,31.9681396 77.9366031,33.514679 77.9366031,34.2593582 C77.9366031,34.5945467 77.712498,34.9547634 77.4385885,35.0598383 C77.0243111,35.218763 76.9769736,35.7243091 77.1570635,38.0664557 C77.3048487,39.9884974 77.2608929,40.8820253 77.0185549,40.8820253 C76.5108178,40.8820253 75.316677,39.2762086 75.075987,38.2697682 C74.9636273,37.7999272 74.6658178,37.0069611 74.41419,36.5076184 C74.0199816,35.7253325 73.7568942,35.5997227 72.5125957,35.5997227 C71.5467509,35.5997227 70.4447588,35.2717148 69.1850774,34.6092909 C68.1491939,34.0645535 67.0334933,33.6188592 66.7057404,33.6188592 C66.2925561,33.6188592 65.9507776,33.1522206 65.5911395,32.0970727 C65.0038758,30.3740853 65.1122362,30.0190122 66.9007805,27.8055781 C68.1093398,26.3099116 69.0287256,25.8527676 71.4930297,25.5221846 L73.1404896,25.3011804 L72.1965699,24.8067631 C71.3930015,24.3858626 71.3205619,24.2444517 71.7093939,23.8557413 C71.9606023,23.6046084 72.6346911,23.3054554 73.2073645,23.1909562 C74.1117075,23.010143 74.2630759,23.0809153 74.3588011,23.7293163 C74.4487568,24.3386253 74.8636122,24.5870652 76.6156181,25.0808347 C81.0308652,26.3251867 81.9351059,25.9502945 82.004702,22.8465593 C82.0425812,21.1573311 81.908848,20.7061977 80.9637724,19.3350704 C79.7756455,17.6113227 78.934287,16.9498368 77.4724123,16.5901232 C76.7442193,16.4109419 76.4085768,16.4965719 76.0803847,16.945259 C75.7296995,17.4247045 75.3491105,17.5004551 74.0677286,17.3458523 C73.1986262,17.240992 71.9302494,16.9205609 71.2491165,16.6337837 C70.1740956,16.181168 70.010693,15.9688191 70.010693,15.0243978 C70.010693,14.4260126 70.2103533,13.6634591 70.4543789,13.3298341 C70.8827149,12.7442315 70.9769869,12.7493477 73.1789105,13.477704 C79.5455398,15.5836652 79.6909109,15.6673481 83.8730471,19.6337787 C86.034915,21.6841424 88.1502612,23.4486629 88.5738152,23.5549353 C88.9973692,23.6612079 90.3518875,23.7034532 91.5838513,23.648814 L93.8237895,23.5494698 L91.5496015,21.2372748 C89.6962727,19.3529712 89.2345785,18.6697779 89.0547462,17.5455085 C88.9333774,16.7867443 88.9638624,15.8216076 89.1224929,15.4007606 C89.6016241,14.1296197 89.0313978,13.2789963 87.3062112,12.6913477 C86.4376767,12.3955005 84.7454256,11.5605156 83.5456508,10.835826 C81.6047738,9.66349352 79.7618907,9.04839645 75.2003907,8.05043775 C74.6486483,7.92972822 74.1611982,7.53541853 73.9823369,7.06512324 C73.81833,6.63388529 73.5263658,6.18357229 73.3335252,6.06442798 C73.1406878,5.94528366 72.9829093,5.61452667 72.9829093,5.3294124 C72.9829093,4.88511033 73.3251006,4.84347423 75.3771947,5.03808615 C77.691032,5.25752092 77.7451495,5.24627787 76.9878519,4.70347076 C75.9686624,3.9729458 73.1739039,2.91547503 72.2624111,2.91547503 C71.8700323,2.91547503 70.6455881,2.48138148 69.541423,1.95082264 L67.5338461,0.986170281 L62.7452754,1.61575862 C60.1115615,1.96203225 56.916429,2.22340101 55.6449809,2.19657814 C53.1241221,2.14339734 51.9140304,2.5812303 50.5511603,4.03961044 C49.9638735,4.66805226 49.4196144,4.89633853 48.5086202,4.89633853 C46.5767028,4.89633853 45.5763406,5.42749056 43.2607463,7.68274591 C41.1040335,9.78326082 40.5162844,10.0812444 36.325575,11.1988232 L34.8394668,11.5951385 L37.3163137,12.0829786 C38.6785796,12.3512905 40.333252,12.5896967 40.9933614,12.6127695 C41.8353077,12.6421985 42.4740073,12.9348727 43.1330963,13.5932708 C44.6741012,15.132656 45.7288351,15.5402847 47.1500169,15.1457085 C48.9447666,14.6474161 50.5598887,14.7205637 50.9983401,15.3199965 C51.3372422,15.7833287 51.6578584,15.7282838 53.9712467,14.809592 C57.2797098,13.4957371 58.361613,13.6790029 55.3943702,15.0506571 C53.003242,16.1559928 52.9721527,16.1945943 52.6950463,18.4023878 C52.5945458,19.2030756 52.4398915,19.9305933 52.3513624,20.0190933 C52.2628332,20.1075936 51.2404206,19.7124734 50.0793342,19.1410491 C48.9182445,18.5696245 47.7036054,18.1020951 47.3801291,18.1020951 C47.0566562,18.1020951 46.257533,17.5246305 45.6043026,16.8188406 C44.704616,15.8467678 43.8676135,15.3664197 42.1526579,14.8379771 C38.5176935,13.7179051 36.9254541,14.0826151 39.5675694,15.4301044 C40.9485173,16.1343928 41.8249347,17.0063581 41.4892097,17.3419797 C41.3712754,17.4598777 40.5795662,17.3405063 39.7298591,17.0767101 C38.6299376,16.7352333 38.0293088,16.3145844 37.6446446,15.616332 C36.5940784,13.7093319 34.1833402,13.174447 32.3906099,14.4505876 C31.3825828,15.1681438 30.6683457,15.2161807 29.3415671,14.6556551 C28.9877139,14.5061623 28.5545381,14.6863034 28.1031437,15.1706681 C27.2195414,16.11881 27.2306968,16.2444443 28.2467513,16.7880517 C28.7075551,17.0345903 29.0387066,17.4682476 28.982643,17.7517352 C28.9021372,18.1588178 28.4050383,18.2671671 26.6178813,18.2671671 C24.930534,18.2671671 24.2956045,18.3931101 24.1212979,18.762383 C23.9927323,19.0347517 23.6395779,19.752474 23.3365106,20.3573214 C22.4893467,22.0480488 22.6240921,22.6903917 23.9413404,23.2406026 C25.1812949,23.7585281 25.5546868,24.5714375 24.4158825,24.2737259 C24.0411567,24.1757633 23.1123391,24.3780204 22.3518434,24.7231858 C21.5913477,25.0683516 20.5692151,25.3540229 20.0804371,25.3580107 C19.5916591,25.3619985 19.0956741,25.520667 18.9782484,25.7106073 C18.832419,25.9464912 19.3234529,25.9735508 20.527428,25.7959783 C21.4969025,25.6529923 23.0331632,25.5347278 23.9413404,25.5331685 C25.3116827,25.5308156 25.6228824,25.4180123 25.7707547,24.8700454 C26.0736421,23.7476452 27.3956119,23.9102903 29.8102378,25.3670322 C31.0401412,26.1090323 32.2150497,26.6119402 32.4211448,26.4846056 C32.6920931,26.3172025 32.7417677,26.7770686 32.6005211,28.1451939 C32.4162456,29.9300955 32.4694665,30.1214958 33.5398454,31.5233344 C34.1639118,32.3406535 34.7666211,33.3762364 34.8791955,33.8246313 C35.0706194,34.5870887 35.1224185,34.6050288 35.6788934,34.1015791 C36.2333537,33.5999551 36.3081479,33.6157888 36.7762059,34.3338849 C37.0524701,34.7577269 37.7627935,36.1413733 38.3547004,37.4086571 C39.2487695,39.3228712 39.4177929,40.0491911 39.3534675,41.700528 C39.2883495,43.3721193 39.1181439,43.8720199 38.2832682,44.8437523 C37.7372456,45.4792793 36.9298794,46.7442984 36.4891228,47.6549046 C35.7648994,49.1511532 35.6837942,49.7597636 35.6467208,53.9764178 C35.6043271,58.7984305 35.8186503,59.8250361 36.9421613,60.1815123 C38.1608921,60.5682033 38.5814739,61.4835372 38.9206104,64.4873153 C39.3976379,68.7124113 41.8647921,75.587305 43.5115882,77.280392 C44.9012512,78.7091195 45.1174205,78.7713351 45.4166963,77.8287016 C45.5737185,77.3341196 45.3393163,76.7703031 44.5882504,75.8359926 C43.7692463,74.8171651 43.5043855,74.1216146 43.3737368,72.6465316 C43.2818392,71.6089652 42.9317517,70.0172259 42.5957658,69.1093301 C41.3039977,65.6187515 41.6787644,65.9728374 43.9248914,70.3651117 C45.7927939,74.0177778 46.4795245,75.0545452 47.3846865,75.5884407 C48.3811088,76.1761596 48.633559,76.6305763 49.5299101,79.4498898 C50.4496657,82.3428089 50.7068813,82.7934388 52.2476089,84.2111692 C53.7784357,85.6197877 57.8126183,87.9438028 60.6929006,89.0763351 C61.6255854,89.4430721 61.9555806,89.422831 63.0440822,88.9321381 L64.3103025,88.3613292 L65.8472818,89.5341687 C67.5651369,90.8450316 69.1543347,91.3894686 71.2708269,91.3922022 C73.0915273,91.3945561 73.9736481,91.8718815 73.9736481,92.8547331 C73.9736481,94.0092728 74.8523706,94.8439988 77.6063569,96.3055624 C80.460061,97.8200481 82.1906075,98.0361075 83.2205432,97.0064909 Z M87.1834983,83.3055185 C87.1834983,82.7662482 85.3794059,82.5864287 85.0653648,83.094398 C84.7903787,83.5392009 85.2281961,83.8007343 86.2478017,83.8007343 C86.8593682,83.8007343 87.1834983,83.6291882 87.1834983,83.3055185 Z M94.4975711,82.1057788 C95.5606239,81.7182889 96.4303934,81.2847472 96.4303934,81.1423495 C96.4303934,80.9999485 96.5203294,80.6491442 96.6302519,80.3627807 C96.8016166,79.9163502 96.6015171,79.8720448 95.2267053,80.0520261 C92.9438648,80.350879 91.8069459,80.996307 91.8069459,81.9934209 C91.8069459,82.9895377 92.0456743,82.9995081 94.4975711,82.1057788 Z M89.5855873,80.9003408 C89.9077393,80.6157138 90.0485299,80.2600861 89.8984494,80.1100522 C89.6258113,79.8374986 85.1478868,79.1080522 84.211282,79.1836221 C83.9388288,79.2056031 82.415568,79.2069336 80.8262579,79.1865802 C79.2369478,79.1662236 77.9388785,79.2675513 77.9416547,79.4117516 C77.9637824,80.558698 79.7268053,81.2034558 82.1536596,80.9521305 C83.5055622,80.812123 84.3763325,80.9025462 85.2020207,81.2686758 C86.5491382,81.8660217 88.6968385,81.6855551 89.5855873,80.9003408 Z M99.8102063,79.8192383 C100.642866,79.0393195 100.738155,78.844604 100.228225,78.9650504 C99.8649545,79.0508581 98.995961,79.2177656 98.2971302,79.3359572 C97.0646776,79.5444001 97.0439051,79.5700457 97.605261,80.1901451 C98.3703491,81.035297 98.5429061,81.0062708 99.8102063,79.8192383 Z M124.490206,49.4214651 C122.68612,42.3557778 119.476291,34.2184071 118.771288,34.9231918 C118.584957,35.1094656 118.423338,36.5635481 118.412136,38.1544852 C118.394481,40.6619415 118.507336,41.2668939 119.25969,42.6978168 C119.737047,43.6057126 120.70742,45.4627721 121.416075,46.8246158 C122.852369,49.5847873 124.81493,52.5637452 125.045323,52.3334236 C125.127872,52.2509041 124.878067,50.94052 124.490206,49.4214651 Z M117.554328,32.8077461 C117.880053,32.4153915 117.573984,31.7615088 115.893087,29.258699 C112.271444,23.8661676 110.330032,21.4895797 106.890458,18.2380986 C100.411132,12.1130977 94.4751308,8.19084103 86.8630174,5.00482184 C84.5979442,4.05678486 82.6921987,3.33360725 82.6280253,3.39776016 C82.452113,3.5736199 83.5202648,5.57687606 84.4557237,6.82549785 C85.1863274,7.80068553 85.4222818,7.91083805 86.4807739,7.77087156 C87.1397274,7.68373733 87.990029,7.51003937 88.3703373,7.3848762 C88.9152106,7.20555259 89.6503585,7.65526539 91.837923,9.50611128 C94.5073497,11.7646483 98.1124037,13.8046161 100.272439,14.2788919 C101.311344,14.5070035 102.336686,15.3995275 102.964652,16.6223693 C103.284433,17.2450785 103.219599,17.2802682 101.971691,17.1612982 C100.528023,17.0236649 100.526276,17.043866 101.827205,18.8305669 C102.533133,19.8000946 104.082084,20.4975748 104.863529,20.1977995 C105.603938,19.9137655 106.937,20.9479928 107.467976,22.2184067 C107.858307,23.1523103 108.219888,23.4312492 109.533739,23.8120283 C111.239653,24.3064353 111.938361,25.1561234 111.9471,26.7468806 C111.949778,27.2344028 112.107606,28.0425158 112.297828,28.5426875 C112.863365,30.0297009 116.000278,33.2235316 116.947787,33.2771582 C117.061772,33.2834495 117.334714,33.0722795 117.554328,32.8077461 Z M23.4525944,28.1635063 C23.6823534,27.8867496 23.7875834,27.5775834 23.6864389,27.4764702 C23.4337096,27.223819 22.124986,27.9544318 22.124986,28.3481723 C22.124986,28.843237 22.9879439,28.7232023 23.4525944,28.1635063 Z M17.7628273,25.4131523 C17.8720589,25.0809889 17.7085754,25.0267964 17.127803,25.2026509 C15.8658558,25.5847611 15.5499908,26.0914742 16.6504545,25.9684167 C17.1813535,25.9090499 17.6819213,25.6591812 17.7628273,25.4131523 Z" id="path-1"></path>
        <filter x="-6.3%" y="-4.7%" width="112.6%" height="112.5%" filterUnits="objectBoundingBox" id="filter-2">
            <feMorphology radius="1" operator="dilate" in="SourceAlpha" result="shadowSpreadOuter1"></feMorphology>
            <feOffset dx="0" dy="2" in="shadowSpreadOuter1" result="shadowOffsetOuter1"></feOffset>
            <feGaussianBlur stdDeviation="2" in="shadowOffsetOuter1" result="shadowBlurOuter1"></feGaussianBlur>
            <feComposite in="shadowBlurOuter1" in2="SourceAlpha" operator="out" result="shadowBlurOuter1"></feComposite>
            <feColorMatrix values="0 0 0 0 0   0 0 0 0 0   0 0 0 0 0  0 0 0 0.5 0" type="matrix" in="shadowBlurOuter1"></feColorMatrix>
        </filter>
    </defs>
    <g id="customized" stroke="none" stroke-width="1" fill="none" fill-rule="evenodd">
        <g id="pie-chart-2" transform="translate(827.000000, 68.000000) rotate(-90.000000) translate(-827.000000, -68.000000) translate(763.000000, 4.000000)">
            <path d="M57.69175,96.79025 L51.94,124.02925 C43.094,122.26225 34.9355,118.58925 27.91225,113.4525 L42.61275,89.62225 C46.87025,93.184 52.02925,95.70775 57.69175,96.79025 Z" id="Shape" fill="#E46A53"></path>
            <path d="M95.33225,116.6025 C87.6355,121.1965 78.8425,124.15175 69.44,124.97825 L65.3245,97.36375 C71.257,97.13275 76.7945,95.34625 81.54425,92.3995 L95.33225,116.6025 Z" id="Shape" fill="#61ACD2"></path>
            <path d="M125.2175,64 C125.2175,74.56 122.5435,84.494 117.838,93.1645 L92.5885,81.2355 C95.6355,76.20175 97.39125,70.30275 97.39125,64 C97.39125,59.6785 96.56475,55.5465 95.065,51.75375 L115.6675,31.15125 C121.714,40.64275 125.2175,51.91225 125.2175,64 Z" id="Shape" fill="#E46A53"></path>
            <path d="M64,2.7825 L64,30.6085 C49.5665,30.6085 37.2425,39.81325 32.59275,52.66075 L6.759,42.25125 L6.759,42.2485 C15.5325,19.17775 37.85175,2.7825 64,2.7825 Z" id="Shape" fill="#30A987"></path>
            <path d="M115.6675,31.15125 L95.065,51.75375 C90.1705,39.38225 78.091,30.60875 64,30.60875 L64,2.7825 C85.72375,2.7825 104.8015,14.09675 115.6675,31.15125 Z" id="Shape" fill="#61ACD2"></path>
            <path d="M42.61275,89.62225 L27.91225,113.4525 C12.6775,102.31925 2.7825,84.31575 2.7825,64 C2.7825,56.3395 4.1905,49.01 6.75875,42.25125 L32.5925,52.661 C31.307,56.20325 30.6085,60.021 30.6085,64.00025 C30.60875,74.28175 35.28075,83.495 42.61275,89.62225 Z" id="Shape" fill="#F4A026"></path>
            <path d="M69.44,124.978 C67.648,125.1365 65.83375,125.21725 64,125.21725 C59.8735,125.21725 55.8385,124.80825 51.94025,124.029 L57.692,96.79 C59.7345,97.18525 61.84375,97.391 64.00025,97.391 C64.44275,97.391 64.885,97.38275 65.322,97.36325 L65.32475,97.36325 L69.44,124.978 Z" id="Shape" fill="#EFEFEF"></path>
            <path d="M117.838,93.1645 C112.576,102.8535 104.77925,110.96475 95.33225,116.6025 L81.5445,92.39925 C86.0495,89.60825 89.84225,85.77375 92.58875,81.2355 L117.838,93.1645 Z" id="Shape" fill="#30A987"></path>
            <path d="M128,64 C128,51.7865 124.547,39.911 118.01425,29.65625 C118.01375,29.65575 118.0135,29.65525 118.01275,29.65425 C106.18125,11.08575 85.98975,0 64,0 C50.76375,0 38.061,4.0065 27.26475,11.58675 C16.71275,18.9955 8.7225,29.256 4.158,41.2595 C4.15475,41.26825 4.1525,41.27725 4.14925,41.28625 C1.39625,48.53925 0,56.1815 0,64 C0,74.24025 2.47775,84.42425 7.165,93.452 C11.7,102.1865 18.30675,109.8795 26.27075,115.69925 C26.27275,115.70075 26.27475,115.70175 26.2765,115.70325 C33.81425,121.215 42.26525,124.93425 51.395,126.75825 C51.39725,126.7585 51.39925,126.75875 51.4015,126.759 C55.52325,127.58225 59.76175,128 64,128 C65.8955,128 67.8065,127.916 69.67975,127.75 C69.68125,127.75 69.68225,127.75 69.68375,127.74975 C79.33375,126.9015 88.44325,123.95475 96.7585,118.9915 C96.76,118.99075 96.76075,118.98975 96.762,118.989 C106.65175,113.08625 114.78525,104.6155 120.2835,94.49225 C120.2835,94.492 120.28375,94.49175 120.28375,94.49175 L120.28375,94.49175 C125.33175,85.18925 128,74.64575 128,64 Z M116.59275,89.49875 L96.447,79.9805 C98.89275,75.02875 100.174,69.56275 100.174,64 C100.174,60.0465 99.5405,56.175 98.28825,52.46575 L115.10775,35.64625 C119.91075,44.28875 122.435,54.02075 122.435,64 C122.43475,72.839 120.42125,81.59975 116.59275,89.49875 Z M80.07875,90.034 C80.078,90.0345 80.07725,90.035 80.0765,90.0355 C75.6105,92.80575 70.47175,94.3785 65.216,94.5835 C65.21525,94.5835 65.21425,94.58375 65.21375,94.58375 C65.20875,94.584 65.204,94.58375 65.199,94.584 C64.823,94.60075 64.4195,94.609 64,94.609 C62.05275,94.609 60.1085,94.42375 58.22025,94.05825 C58.21875,94.058 58.2175,94.058 58.21625,94.05775 C58.2155,94.05775 58.21475,94.0575 58.214,94.05725 C53.1575,93.09075 48.38025,90.8195 44.399,87.489 C44.3985,87.4885 44.3975,87.488 44.397,87.48725 C37.40275,81.642 33.39125,73.08175 33.39125,64 C33.39125,60.42825 34.0025,56.93275 35.208,53.6105 C35.20825,53.60975 35.20875,53.60875 35.209,53.60775 C39.5855,41.51575 51.1555,33.39125 63.99975,33.39125 C76.63975,33.39125 87.81775,41.0005 92.477,52.77675 L92.477,52.777 C93.8915,56.35325 94.6085,60.12925 94.6085,63.99975 C94.6085,69.5765 93.08675,75.038 90.20775,79.794 C90.2075,79.79425 90.2075,79.7945 90.2075,79.7945 C87.6975,83.94325 84.19475,87.484 80.07875,90.034 Z M42.0975,95.75725 L43.368,93.6975 C46.732,96.03925 50.47275,97.796 54.40625,98.8795 L49.799,120.69875 C43.3155,119.08625 37.2335,116.39675 31.6595,112.67725 L42.0975,95.75725 Z M112.09075,30.793 L95.912,46.97125 C93.2095,41.913 89.34225,37.5665 84.56675,34.25525 C79.26675,30.57975 73.168,28.41875 66.7825,27.93175 L66.7825,5.63 C85.036,6.48475 101.677,15.71675 112.09075,30.793 Z M61.2175,5.63225 L61.2175,27.93375 C48.1225,28.95075 36.51025,37.08375 31.0645,49.04475 L25.9945,47.00175 L10.38875,40.71325 C19.2225,20.42875 39.11625,6.70225 61.2175,5.63225 Z M5.56525,64 C5.56525,57.80775 6.52325,51.73875 8.416,45.919 L29.15425,54.2755 C28.27225,57.4265 27.826,60.68675 27.826,64.00025 C27.826,73.92675 31.878,83.32475 39.0215,90.14375 L27.16525,109.36325 C13.58725,98.31325 5.56525,81.57475 5.56525,64 Z M55.25825,121.78475 L59.87125,99.93825 C60.8845,100.05425 61.905,100.12775 62.92775,100.158 L66.2415,122.39225 C62.55925,122.53225 58.8745,122.3265 55.25825,121.78475 Z M71.7975,121.91975 L68.51425,99.89075 C72.69175,99.365 76.75475,98.1095 80.49875,96.18575 L88.47875,110.194 L91.53375,115.55675 C85.362,118.86675 78.744,121.00075 71.7975,121.91975 Z M96.31025,112.69825 L85.23975,93.26475 C88.45875,90.9205 91.2925,88.04325 93.58925,84.78575 L113.921,94.3915 C109.45925,101.7035 103.4435,107.95725 96.31025,112.69825 Z" id="Shape" fill="#231F20"></path>
        </g>
        <g id="pie-chart-1" transform="translate(377.000000, 4.000000)">
            <path d="M65.8705,69.305 C65.26075,69.51475 64.62875,69.61775 64.0005,69.61775 C62.8175,69.61775 61.6465,69.25275 60.6585,68.5475 C59.1455,67.468 58.2475,65.72375 58.2475,63.865 L58.2475,3.01275 C27.188,5.91275 2.8765,32.04775 2.8765,63.86475 C2.8765,97.62225 30.2425,124.98825 64,124.98825 C97.7575,124.98825 125.1235,97.62225 125.1235,63.86475 C125.1235,58.923 124.53475,54.119 123.42725,49.516 L65.8705,69.305 Z" id="Shape" fill="#F4A026"></path>
            <path d="M69.75275,55.80375 L119.6885,38.635 C110.835,19.125 92.03075,5.09125 69.75275,3.01125 L69.75275,55.80375 Z" id="Shape" fill="#61ACD2"></path>
            <polygon id="Shape" fill="#231F20" points="66.8065 72.02475 66.8065 72.02525 66.80575 72.02525"></polygon>
            <path d="M126.22375,48.84325 C126.03425,48.0555 125.521,47.384 124.8105,46.994 C124.1,46.604 123.2585,46.5325 122.49175,46.79575 L64.935,66.585 C64.93475,66.58525 64.9345,66.58525 64.93425,66.58525 C64.06475,66.885 63.07925,66.74175 62.32875,66.20625 C61.574,65.66775 61.1235,64.79275 61.1235,63.86525 L61.1235,3.01275 C61.1235,2.2035 60.78225,1.4315 60.184,0.88625 C59.58575,0.34125 58.78575,0.07475 57.9795,0.14875 C42.1805,1.62375 27.5535,8.9055 16.7935,20.652 C5.964,32.474 0,47.82075 0,63.86475 C0,80.95975 6.65725,97.03175 18.74525,109.1195 C30.83325,121.20725 46.905,127.86475 64,127.86475 C81.095,127.86475 97.16675,121.20725 109.25475,109.1195 C121.34275,97.03175 128,80.95975 128,63.86475 C128,58.796 127.40225,53.74175 126.22375,48.84325 Z M64,122.112 C31.88225,122.112 5.75275,95.9825 5.75275,63.86475 C5.75275,34.678 26.869,10.44425 55.37075,6.25375 L55.37075,63.86475 C55.37075,66.6475 56.723,69.27325 58.98725,70.88875 C60.45875,71.939 62.1925,72.494 64.0005,72.494 C64.95775,72.494 65.90175,72.336 66.8065,72.02475 L121.288,53.293 C121.925,56.76925 122.24725,60.31275 122.24725,63.86475 C122.24725,95.9825 96.11775,122.112 64,122.112 Z" id="Shape" fill="#231F20"></path>
            <path d="M68.082,58.14475 C68.57625,58.4975 69.1615,58.67975 69.75325,58.67975 C70.06725,58.67975 70.38325,58.62825 70.688,58.5235 L120.62375,41.35475 C121.39,41.09125 122.0095,40.51675 122.33025,39.77275 C122.65075,39.0285 122.64275,38.18375 122.30775,37.44575 C112.83275,16.566 92.797,2.27375 70.02025,0.14725 C69.2145,0.0735 68.414,0.34 67.81575,0.88475 C67.2175,1.43 66.87625,2.20175 66.87625,3.01125 L66.87625,55.8035 C66.8765,56.733 67.3255,57.60525 68.082,58.14475 Z M72.62925,6.25575 C91.00225,8.99475 107.07225,20.45975 115.68,36.9715 L72.62925,51.773 L72.62925,6.25575 L72.62925,6.25575 Z" id="Shape" fill="#231F20"></path>
        </g>
        <g id="bar-chart-2" transform="translate(0.000000, 7.000000)">
            <rect id="Rectangle-path" fill="#E46A53" x="51.1065" y="2.713" width="12.025" height="106.88925"></rect>
            <polygon id="Rectangle-path" fill="#61ACD2" points="73.8205 26.16175 85.8455 26.16175 85.8455 109.60225 73.8205 109.60225"></polygon>
            <polygon id="Rectangle-path" fill="#30A987" points="28.3925 26.16175 40.4175 26.16175 40.4175 109.60225 28.3925 109.60225"></polygon>
            <polygon id="Rectangle-path" fill="#EFEFEF" points="5.6785 55.022 17.7035 55.022 17.7035 109.6025 5.6785 109.6025"></polygon>
            <polygon id="Rectangle-path" fill="#F4A026" points="96.5345 55.022 108.5595 55.022 108.5595 109.6025 96.5345 109.6025"></polygon>
            <path d="M127.36775,107.87625 L120.019,99.1915 C119.06525,98.06425 117.37925,97.9245 116.253,98.8775 C115.126,99.83075 114.98575,101.51675 115.939,102.6435 L119.566,106.93 L111.2315,106.93 L111.2315,55.022 C111.2315,53.5465 110.035,52.34975 108.55925,52.34975 L96.53425,52.34975 C95.05875,52.34975 93.862,53.54625 93.862,55.022 L93.862,106.93 L88.5175,106.93 L88.5175,26.16175 C88.5175,24.68625 87.321,23.4895 85.84525,23.4895 L73.82025,23.4895 C72.34475,23.4895 71.148,24.686 71.148,26.16175 L71.148,106.93 L65.8035,106.93 L65.8035,2.713 C65.8035,1.2375 64.607,0.04075 63.13125,0.04075 L51.10625,0.04075 C49.63075,0.04075 48.434,1.2375 48.434,2.713 L48.434,106.93 L43.0895,106.93 L43.0895,26.16175 C43.0895,24.68625 41.893,23.4895 40.41725,23.4895 L28.39225,23.4895 C26.91675,23.4895 25.72,24.686 25.72,26.16175 L25.72,106.93 L20.37575,106.93 L20.37575,55.022 C20.37575,53.5465 19.179,52.34975 17.7035,52.34975 L5.6785,52.34975 C4.203,52.34975 3.00625,53.54625 3.00625,55.022 L3.00625,106.93 L2.67225,106.93 C1.19675,106.93 0,108.12675 0,109.60225 C0,111.07775 1.19675,112.2745 2.67225,112.2745 L119.56625,112.2745 L115.93925,116.561 C114.986,117.6875 115.12625,119.3735 116.25325,120.327 C116.755,120.752 117.368,120.95925 117.978,120.95925 C118.737,120.95925 119.49075,120.63775 120.01925,120.013 L127.368,111.32825 C127.45,111.23125 127.50825,111.1525 127.548,111.0865 C127.62425,110.97275 127.69325,110.85325 127.75225,110.7265 C128.18975,109.78275 128.03975,108.6705 127.36775,107.87625 Z M8.35075,106.93 L8.35075,57.69425 L15.03125,57.69425 L15.03125,106.93 L8.35075,106.93 Z M31.06475,106.93 L31.06475,28.834 L37.74525,28.834 L37.74525,106.93 L31.06475,106.93 Z M53.77875,106.93 L53.77875,5.38525 L60.45925,5.38525 L60.45925,106.93025 L53.77875,106.93025 L53.77875,106.93 Z M76.49275,106.93 L76.49275,28.834 L83.17325,28.834 L83.17325,106.93 L76.49275,106.93 Z M99.20675,106.93 L99.20675,57.69425 L105.88725,57.69425 L105.88725,106.93 L99.20675,106.93 Z" id="Shape" fill="#231F20"></path>
        </g>
        <g id="line-chart" transform="translate(570.000000, 8.000000)">
            <ellipse id="Oval" fill="#E46A53" cx="29.33325" cy="82.2987234" rx="6" ry="6.02553191"></ellipse>
            <ellipse id="Oval" fill="#F4A026" cx="52" cy="51.9488723" rx="6" ry="6.02553191"></ellipse>
            <ellipse id="Oval" fill="#30A987" cx="74.66675" cy="72.3016128" rx="6" ry="6.02553191"></ellipse>
            <ellipse id="Oval" fill="#61ACD2" cx="97.33325" cy="25.9720511" rx="6" ry="6.02553191"></ellipse>
            <path d="M26.13325,54.4474596 C27.606,54.4474596 28.8,53.2486298 28.8,51.7693617 C28.8,50.2900936 27.60625,49.0912638 26.13325,49.0912638 L22.93325,49.0912638 C21.4605,49.0912638 20.2665,50.2900936 20.2665,51.7693617 C20.2665,53.2486298 21.46025,54.4474596 22.93325,54.4474596 L26.13325,54.4474596 Z" id="Shape" fill="#231F20"></path>
            <path d="M36.8,54.4474596 L40,54.4474596 C41.47275,54.4474596 42.66675,53.2486298 42.66675,51.7693617 C42.66675,50.2900936 41.473,49.0912638 40,49.0912638 L36.8,49.0912638 C35.32725,49.0912638 34.13325,50.2900936 34.13325,51.7693617 C34.13325,53.2486298 35.32725,54.4474596 36.8,54.4474596 Z" id="Shape" fill="#231F20"></path>
            <path d="M78.4,28.6488936 L81.6,28.6488936 C83.0725,28.6488936 84.26675,27.4500638 84.26675,25.9707957 C84.26675,24.4915277 83.0725,23.2926979 81.6,23.2926979 L78.4,23.2926979 C76.9275,23.2926979 75.73325,24.4915277 75.73325,25.9707957 C75.73325,27.4500638 76.9275,28.6488936 78.4,28.6488936 Z" id="Shape" fill="#231F20"></path>
            <path d="M64.53325,28.6488936 L67.73325,28.6488936 C69.20575,28.6488936 70.4,27.4500638 70.4,25.9707957 C70.4,24.4915277 69.20575,23.2926979 67.73325,23.2926979 L64.53325,23.2926979 C63.06075,23.2926979 61.8665,24.4915277 61.8665,25.9707957 C61.8665,27.4500638 63.06075,28.6488936 64.53325,28.6488936 Z" id="Shape" fill="#231F20"></path>
            <path d="M50.66675,28.6488936 L53.86675,28.6488936 C55.3395,28.6488936 56.5335,27.4500638 56.5335,25.9707957 C56.5335,24.4915277 55.33975,23.2926979 53.86675,23.2926979 L50.66675,23.2926979 C49.194,23.2926979 48,24.4915277 48,25.9707957 C48,27.4500638 49.19375,28.6488936 50.66675,28.6488936 Z" id="Shape" fill="#231F20"></path>
            <path d="M36.8,28.6488936 L40,28.6488936 C41.47275,28.6488936 42.66675,27.4500638 42.66675,25.9707957 C42.66675,24.4915277 41.473,23.2926979 40,23.2926979 L36.8,23.2926979 C35.32725,23.2926979 34.13325,24.4915277 34.13325,25.9707957 C34.13325,27.4500638 35.32725,28.6488936 36.8,28.6488936 Z" id="Shape" fill="#231F20"></path>
            <path d="M20.26675,25.9710468 C20.26675,27.4500638 21.4605,28.6491447 22.9335,28.6491447 L26.1335,28.6491447 C27.60625,28.6491447 28.80025,27.4503149 28.80025,25.9710468 C28.80025,24.4917787 27.6065,23.2929489 26.1335,23.2929489 L22.9335,23.2929489 C21.4605,23.2929489 20.26675,24.4917787 20.26675,25.9710468 Z" id="Shape" fill="#231F20"></path>
            <path d="M52,86.0478596 C50.52725,86.0478596 49.33325,87.2466894 49.33325,88.7259574 L49.33325,91.9395745 C49.33325,93.4185915 50.527,94.6176723 52,94.6176723 C53.47275,94.6176723 54.66675,93.4188426 54.66675,91.9395745 L54.66675,88.7259574 C54.66675,87.2469404 53.47275,86.0478596 52,86.0478596 Z" id="Shape" fill="#231F20"></path>
            <path d="M54.66675,74.8002 C54.66675,73.321183 53.473,72.1221021 52,72.1221021 C50.52725,72.1221021 49.33325,73.3209319 49.33325,74.8002 L49.33325,78.013817 C49.33325,79.492834 50.527,80.6919149 52,80.6919149 C53.47275,80.6919149 54.66675,79.4930851 54.66675,78.013817 L54.66675,74.8002 Z" id="Shape" fill="#231F20"></path>
            <path d="M72,87.8331745 L72,91.0467915 C72,92.5258085 73.19425,93.7248894 74.66675,93.7248894 C76.13925,93.7248894 77.3335,92.5260596 77.3335,91.0467915 L77.3335,87.8331745 C77.3335,86.3541574 76.13925,85.1550766 74.66675,85.1550766 C73.19425,85.1550766 72,86.3539064 72,87.8331745 Z" id="Shape" fill="#231F20"></path>
            <path d="M100,74.8002 C100,73.321183 98.80575,72.1221021 97.33325,72.1221021 C95.86075,72.1221021 94.6665,73.3209319 94.6665,74.8002 L94.6665,78.013817 C94.6665,79.492834 95.86075,80.6919149 97.33325,80.6919149 C98.80575,80.6919149 100,79.492834 100,78.013817 L100,74.8002 Z" id="Shape" fill="#231F20"></path>
            <path d="M100,46.9489362 C100,45.4699191 98.80575,44.2708383 97.33325,44.2708383 C95.86075,44.2708383 94.6665,45.4696681 94.6665,46.9489362 L94.6665,50.1625532 C94.6665,51.6415702 95.86075,52.8406511 97.33325,52.8406511 C98.80575,52.8406511 100,51.6415702 100,50.1625532 L100,46.9489362 Z" id="Shape" fill="#231F20"></path>
            <path d="M100,60.8746936 C100,59.3956766 98.80575,58.1965957 97.33325,58.1965957 C95.86075,58.1965957 94.6665,59.3954255 94.6665,60.8746936 L94.6665,64.0883106 C94.6665,65.5673277 95.86075,66.7664085 97.33325,66.7664085 C98.80575,66.7664085 100,65.5673277 100,64.0883106 L100,60.8746936 Z" id="Shape" fill="#231F20"></path>
            <path d="M97.33325,86.0478596 C95.86075,86.0478596 94.6665,87.2466894 94.6665,88.7259574 L94.6665,91.9395745 C94.6665,93.4185915 95.86075,94.6176723 97.33325,94.6176723 C98.80575,94.6176723 100,93.4185915 100,91.9395745 L100,88.7259574 C100,87.2469404 98.80575,86.0478596 97.33325,86.0478596 Z" id="Shape" fill="#231F20"></path>
            <path d="M127.08,103.841506 L117.08,95.1378766 C115.967,94.1695234 114.28325,94.289783 113.3185,95.4077702 C112.354,96.5252553 112.47425,98.2166723 113.587,99.1852766 L118.1845,103.187234 L100,103.187234 L100,102.651715 C100,101.172698 98.80575,99.973617 97.33325,99.973617 C95.86075,99.973617 94.6665,101.172447 94.6665,102.651715 L94.6665,103.187234 L77.33325,103.187234 L77.33325,101.758932 C77.33325,100.279915 76.139,99.080834 74.6665,99.080834 C73.194,99.080834 72,100.279915 72,101.758932 L72,103.187234 L54.66675,103.187234 L54.66675,102.651715 C54.66675,101.172698 53.473,99.973617 52,99.973617 C50.52725,99.973617 49.33325,101.172447 49.33325,102.651715 L49.33325,103.187234 L32,103.187234 L32,100.33063 C32,98.8516128 30.80625,97.6525319 29.33325,97.6525319 C27.8605,97.6525319 26.6665,98.8513617 26.6665,100.33063 L26.6665,103.187234 L15.33325,103.187234 L15.33325,10.0744383 L19.318,14.6917532 C19.8455,15.3028426 20.58775,15.6159191 21.33425,15.6159191 C21.95325,15.6159191 22.575,15.4005064 23.0795,14.9616468 C24.19225,13.9930426 24.31275,12.3016255 23.348,11.1841404 L14.68125,1.14158723 C14.6705,1.12928511 14.66125,1.12074894 14.651,1.10970213 C14.36925,0.793361702 14.01175,0.541544681 13.59825,0.386387234 C12.55525,-0.00401702128 11.38075,0.296757447 10.651,1.14158723 L1.98425,11.1841404 C1.01975,12.3016255 1.14,13.9930426 2.253,14.9616468 C3.366,15.9302511 5.05,15.8094894 6.0145,14.6917532 L10,10.0744383 L10,103.187234 L2.66675,103.187234 C1.19375,103.187234 0,104.386064 0,105.865332 C0,107.3446 1.19375,108.54343 2.66675,108.54343 L10,108.54343 L10,115.104481 C10,116.583498 11.19375,117.782579 12.66675,117.782579 C14.13975,117.782579 15.3335,116.583749 15.3335,115.104481 L15.3335,108.54343 L118.185,108.54343 L113.58725,112.545136 C112.47425,113.51374 112.354,115.205157 113.3185,116.322643 C113.846,116.933732 114.588,117.246809 115.33475,117.246809 C115.95375,117.246809 116.5755,117.031396 117.08,116.592536 L127.08,107.888906 C127.095,107.875851 127.10675,107.864051 127.12025,107.851498 C127.43125,107.569553 127.67925,107.213294 127.832,106.801549 C128.22075,105.753609 127.921,104.573609 127.08,103.841506 Z" id="Shape" fill="#231F20"></path>
            <path d="M20.66675,82.2987234 C20.66675,87.0978085 24.55475,91.0023532 29.3335,91.0023532 C34.11225,91.0023532 38,87.0978085 38,82.2987234 C38,80.432566 37.4105,78.7034894 36.411,77.2849787 L49.18675,60.1779915 C50.0695,60.4832851 51.01525,60.6512468 52,60.6512468 C53.59175,60.6512468 55.0835,60.2161532 56.36675,59.4612043 L66.744,68.7791872 C66.26725,69.8567532 66,71.0478 66,72.3008596 C66,77.0999447 69.88775,81.0044894 74.66675,81.0044894 C79.44575,81.0044894 83.3335,77.0999447 83.3335,72.3008596 C83.3335,69.852234 82.32,67.6381021 80.69375,66.0551447 L96.09075,34.5840426 C96.497,34.6430426 96.91125,34.6749277 97.3335,34.6749277 C102.1125,34.6749277 106.00025,30.770383 106.00025,25.9712979 C106.00025,24.5542936 105.65925,23.2168766 105.05875,22.0333617 L115.21425,11.8913872 C116.2585,10.848217 116.26325,9.15278298 115.22475,8.10408936 C114.186,7.05514468 112.4975,7.05062553 111.45325,8.09329362 L101.29775,18.2355191 C100.109,17.6184043 98.76175,17.2676681 97.33375,17.2676681 C92.55475,17.2676681 88.667,21.1722128 88.667,25.9712979 C88.667,28.4199234 89.6805,30.6340553 91.30675,32.2170128 L75.90975,63.688617 C75.5035,63.629617 75.08925,63.5977319 74.667,63.5977319 C73.07525,63.5977319 71.5835,64.0328255 70.30025,64.7877745 L59.92325,55.4697915 C60.4,54.3922255 60.66725,53.2011787 60.66725,51.9481191 C60.66725,47.149034 56.77925,43.2444894 52.0005,43.2444894 C47.22175,43.2444894 43.33375,47.149034 43.33375,51.9481191 C43.33375,53.8142766 43.92325,55.5433532 44.92275,56.9616128 L32.147,74.0686 C31.264,73.7633064 30.3185,73.5953447 29.33375,73.5953447 C24.55475,73.5950936 20.66675,77.4996383 20.66675,82.2987234 Z M97.33325,22.6233617 C99.1715,22.6233617 100.6665,24.1249745 100.6665,25.9707957 C100.6665,27.8168681 99.17125,29.3182298 97.33325,29.3182298 C95.49525,29.3182298 94,27.8168681 94,25.9710468 C94,24.1249745 95.49525,22.6233617 97.33325,22.6233617 Z M29.33325,85.6461574 C27.495,85.6461574 26,84.1445447 26,82.2987234 C26,80.4529021 27.49525,78.9512894 29.33325,78.9512894 C31.17125,78.9512894 32.6665,80.4529021 32.6665,82.2987234 C32.6665,84.1445447 31.1715,85.6461574 29.33325,85.6461574 Z M74.66675,75.6480426 C72.8285,75.6480426 71.3335,74.1464298 71.3335,72.3006085 C71.3335,70.4547872 72.82875,68.9531745 74.66675,68.9531745 C76.50475,68.9531745 78,70.4545362 78,72.3006085 C78,74.1466809 76.50475,75.6480426 74.66675,75.6480426 Z M52,48.600183 C53.83825,48.600183 55.33325,50.1017957 55.33325,51.947617 C55.33325,53.7934383 53.838,55.2950511 52,55.2950511 C50.162,55.2950511 48.66675,53.7934383 48.66675,51.947617 C48.66675,50.1017957 50.16175,48.600183 52,48.600183 Z" id="Shape" fill="#231F20"></path>
        </g>
        <g id="growth" transform="translate(956.000000, 4.000000)">
            <polygon id="Rectangle-path" fill="#F4A026" points="85.1242417 18.16225 104.32524 18.16225 104.32524 110.507 85.1242417 110.507"></polygon>
            <polygon id="Rectangle-path" fill="#61ACD2" points="85.1242417 58.948 104.32524 58.948 104.32524 110.507 85.1242417 110.507"></polygon>
            <polygon id="Rectangle-path" fill="#E46A53" points="54.4027446 47.40475 73.6037427 47.40475 73.6037427 110.507 54.4027446 110.507"></polygon>
            <polygon id="Rectangle-path" fill="#30A987" points="54.4027446 78.443 73.6037427 78.443 73.6037427 110.50725 54.4027446 110.50725"></polygon>
            <rect id="Rectangle-path" fill="#EFEFEF" x="23.6812476" y="78.443" width="19.2009981" height="32.06425"></rect>
            <path d="M126.866963,108.56875 L117.266464,100.232 C116.197801,99.30425 114.580959,99.42025 113.655267,100.49025 C112.729326,101.561 112.84485,103.18075 113.913263,104.1085 L118.327392,107.9415 L106.885489,107.9415 L106.885489,88.1725 L122.514464,90.471 C123.912733,90.67825 125.213942,89.70725 125.41929,88.30575 C125.624639,86.90425 124.65678,85.601 123.258012,85.39525 L106.885489,82.98725 L106.885489,18.16225 C106.885489,16.74575 105.739228,15.597 104.32524,15.597 L85.1242417,15.597 C83.7102534,15.597 82.5639922,16.74575 82.5639922,18.16225 L82.5639922,86.10025 L76.1637427,88.69725 L76.1637427,47.40475 C76.1637427,45.98825 75.0174815,44.8395 73.6034932,44.8395 L54.4024951,44.8395 C52.9885068,44.8395 51.8422456,45.98825 51.8422456,47.40475 L51.8422456,90.86575 L45.4419961,89.34125 L45.4419961,78.44275 C45.4419961,77.02625 44.2957349,75.8775 42.8817466,75.8775 L23.6812476,75.8775 C22.2672593,75.8775 21.1209981,77.02625 21.1209981,78.44275 L21.1209981,90.43775 L14.7207485,92.748 L14.7207485,9.51975 L18.5462768,13.9425 C19.0527875,14.52775 19.7651462,14.82775 20.4819961,14.82775 C21.0760858,14.82775 21.6731696,14.6215 22.1577232,14.201 C23.2261365,13.27325 23.3416608,11.653 22.4154698,10.583 L14.0949708,0.96375 C14.0842417,0.95125 14.0740117,0.9415 14.0632827,0.93 C13.7928109,0.6285 13.4512281,0.3885 13.0550019,0.2405 C12.0542066,-0.134 10.9256608,0.15475 10.2255283,0.9635 L1.90527875,10.58275 C0.979586745,11.6535 1.09511111,13.27325 2.16352437,14.201 C3.23193762,15.12875 4.84877973,15.013 5.77472125,13.94275 L9.60049903,9.52 L9.60049903,107.942 L2.56024951,107.942 C1.14626121,107.942 0,109.0905 0,110.507 C0,111.9235 1.14626121,113.07225 2.56024951,113.07225 L9.60049903,113.07225 L9.60049903,119.35675 C9.60049903,120.77325 10.7467602,121.922 12.1607485,121.922 C13.5747368,121.922 14.7209981,120.77325 14.7209981,119.35675 L14.7209981,113.07225 L118.327641,113.07225 L113.913513,116.90525 C112.845099,117.833 112.729575,119.45325 113.655766,120.5235 C114.162277,121.10875 114.874635,121.40875 115.591485,121.40875 C116.185575,121.40875 116.782659,121.2025 117.267212,120.782 L126.867712,112.44525 C126.885676,112.42975 126.900148,112.41525 126.916366,112.40025 C127.210292,112.13175 127.444335,111.7935 127.589801,111.4035 C127.962823,110.40025 127.674635,109.27025 126.866963,108.56875 Z M101.76524,20.7275 L101.76524,56.38275 L87.6844912,56.38275 L87.6844912,20.7275 L101.76524,20.7275 Z M87.6844912,61.513 L101.76524,61.513 L101.76524,82.235 L95.3525146,81.29175 C94.9018947,81.2245 94.4417934,81.2805 94.0196179,81.452 L87.6842417,84.02275 L87.6842417,61.513 L87.6844912,61.513 Z M82.5642417,91.63525 L82.5642417,107.942 L76.1639922,107.942 L76.1639922,94.23225 L82.5642417,91.63525 Z M71.0434932,49.97 L71.0434932,75.87775 L56.9627446,75.87775 L56.9627446,49.97 L71.0434932,49.97 Z M56.9629942,81.008 L71.0437427,81.008 L71.0437427,90.7745 L63.8001404,93.71375 L56.9629942,92.0855 L56.9629942,81.008 L56.9629942,81.008 Z M51.8427446,96.13925 L51.8427446,107.942 L45.4424951,107.942 L45.4424951,94.61475 L51.8427446,96.13925 Z M26.2412476,81.008 L40.3219961,81.008 L40.3219961,88.12225 L33.3615906,86.46475 C32.8780351,86.34925 32.3700273,86.378 31.901692,86.54675 L26.2409981,88.59 L26.2409981,81.00825 L26.2412476,81.00825 L26.2412476,81.008 Z M14.7207485,98.20125 L21.1209981,95.891 L21.1209981,107.942 L14.7207485,107.942 L14.7207485,98.20125 Z M26.2412476,107.942 L26.2412476,94.04275 L32.9197037,91.63225 L40.3219961,93.39525 L40.3219961,107.94175 L26.2412476,107.94175 L26.2412476,107.942 Z M56.9629942,107.942 L56.9629942,97.3585 L63.4113996,98.89425 C63.9288889,99.0175 64.4715789,98.97625 64.9643665,98.77625 L71.0439922,96.3095 L71.0439922,107.94175 L56.9629942,107.94175 L56.9629942,107.942 Z M87.6844912,107.942 L87.6844912,89.55775 L95.2971228,86.46875 L101.76524,87.42 L101.76524,107.942 L87.6844912,107.942 L87.6844912,107.942 Z" id="Shape" fill="#231F20"></path>
        </g>
        <g id="myworld" transform="translate(185.000000, 3.000000)" fill-rule="nonzero">
            <g id="path2613">
                <use fill="black" fill-opacity="1" filter="url(#filter-2)" xlink:href="#path-1"></use>
                <use stroke="#000000" stroke-width="2" fill="#4C4C4C" xlink:href="#path-1"></use>
            </g>
        </g>
    </g>
</svg>