<?xml version="1.0" encoding="UTF-8"?>
<svg width="466px" height="114px" viewBox="0 0 466 114" version="1.1" xmlns="http://www.w3.org/2000/svg" xmlns:xlink="http://www.w3.org/1999/xlink">
    <title>Group</title>
    <g id="logo" stroke="none" stroke-width="1" fill="none" fill-rule="evenodd">
        <g id="Group" transform="translate(1.000000, 1.000000)">
            <g id="Virus" fill-rule="nonzero">
                <path d="M60.9997823,4.47006551 C60.9860654,2.85938057 60.1157317,1.37837814 58.7166275,0.584937501 C57.3175233,-0.208503141 55.6022058,-0.193839486 54.2168185,0.623404809 C52.8314313,1.4406491 51.9864475,2.93631519 52.0001645,4.54700013 C52.0241644,6.3195813 53.1050031,7.90553703 54.7440753,8.57324504 L54.8106254,16 L58.3940909,15.9692262 L58.3275409,8.57324504 C59.9633254,7.8713677 61.0174068,6.25284439 60.9997823,4.47006551 Z" id="Path" stroke="#000000" stroke-width="2" fill="#FFFFFF"></path>
                <path d="M81.6608675,11.3389079 C82.6036433,9.02082811 81.5153157,6.37842088 79.20762,5.38254101 C76.8999244,4.38666115 74.2140554,5.40032394 73.1532841,7.66748308 C72.4385574,9.32993647 72.7916712,11.2558769 74.0504859,12.5609679 L71,19.5261852 L74.3988112,21 L77.4492971,14.0347827 C79.270642,14.0585816 80.9294553,12.9967561 81.6608675,11.3389079 L81.6608675,11.3389079 Z" id="Path" stroke="#000000" stroke-width="2" fill="#FFFFFF"></path>
                <path d="M98.3939321,25.0952537 C100.179716,23.559383 100.521157,20.9711229 99.1921066,19.0447736 C97.8630557,17.1184244 95.275207,16.4507029 93.1425884,17.4838657 C91.0099697,18.5170286 89.9931931,20.9310374 90.7657072,23.127005 L85,28.2739228 L87.5643361,31 L93.3300432,25.8530821 C95.0209457,26.6148125 97.0152907,26.3163519 98.3939321,25.0952537 L98.3939321,25.0952537 Z" id="Path" stroke="#000000" stroke-width="2" fill="#FFFFFF"></path>
                <path d="M106.985921,44.9090338 C109.313653,44.0674737 110.548126,41.5023817 109.764548,39.1353662 C108.980971,36.7683508 106.466727,35.4675326 104.105333,36.2074042 C102.417074,36.7856729 101.235646,38.3276552 101.105797,40.1223546 L94,42.5235241 L95.1532698,46 L102.259067,43.6040504 C103.433002,44.9561924 105.293589,45.4698605 106.985921,44.9090338 Z" id="Path" stroke="#000000" stroke-width="2" fill="#FFFFFF"></path>
                <path d="M107.185075,65.9902804 C109.621544,66.1488595 111.743916,64.3487551 111.978751,61.9244925 C112.213585,59.5002298 110.475999,57.3280817 108.054169,57.0183916 C106.289227,56.8573817 104.598683,57.7641591 103.760128,59.3216381 L96.3445517,58.6086063 L96,62.1994137 L103.410434,62.9124455 C103.938154,64.5991978 105.422925,65.8098771 107.185075,65.9902804 L107.185075,65.9902804 Z" id="Path" stroke="#000000" stroke-width="2" fill="#FFFFFF"></path>
                <path d="M99.0512628,86.4475561 C101.310817,87.6399911 104.126226,86.8398307 105.38858,84.6464426 C106.650934,82.4530546 105.897324,79.6707629 103.692248,78.3836699 C102.078669,77.4985018 100.082862,77.6458023 98.6220387,78.7578764 L91.8563941,75 L90,78.220284 L96.7602793,81.9834309 C96.5454623,83.7878016 97.4468103,85.5441347 99.0512628,86.4475561 L99.0512628,86.4475561 Z" id="Path" stroke="#000000" stroke-width="2" fill="#FFFFFF"></path>
                <path d="M83.7115004,101.085581 C85.03905,102.946763 87.5453589,103.539174 89.5703655,102.47043 C91.5953721,101.401685 92.511778,99.0028567 91.7125989,96.8628154 C90.9134197,94.7227742 88.646222,93.5044536 86.4126914,94.0148122 L81.9401425,88 L79,90.163676 L83.4777435,96.1888407 C82.5654778,97.7206838 82.6574321,99.6469437 83.7115004,101.085581 L83.7115004,101.085581 Z" id="Path" stroke="#000000" stroke-width="2" fill="#FFFFFF"></path>
                <path d="M63.0998894,108.490782 C63.4479348,110.052666 64.6075453,111.311279 66.1419069,111.792513 C67.6762684,112.273746 69.3522749,111.90449 70.538591,110.82384 C71.7249071,109.743189 72.2413032,108.115321 71.8932577,106.553436 C71.5024499,104.839435 70.1200886,103.523098 68.3810377,103.208966 L66.7761839,96 L63.2588366,96.7749383 L64.8636904,103.983904 C63.4203505,104.998825 62.72611,106.772753 63.0998894,108.490782 Z" id="Path" stroke="#000000" stroke-width="2" fill="#FFFFFF"></path>
                <path d="M41.0661875,105.718634 C40.6517807,108.123783 42.2250318,110.422631 44.6181127,110.908738 C47.0111937,111.394845 49.3575714,109.892192 49.9155241,107.516201 C50.2597802,105.78093 49.5335742,104.007948 48.0706276,103.012012 L49.555795,95.7190267 L46.0150325,95 L44.5350041,102.303257 C42.8008344,102.648783 41.4377641,103.990855 41.0661875,105.718634 L41.0661875,105.718634 Z" id="Path" stroke="#000000" stroke-width="2" fill="#FFFFFF"></path>
                <path d="M21.9093682,95.7886151 C20.5284304,97.6098531 20.740943,100.150405 22.4061641,101.727728 C24.0713851,103.30505 26.6735515,103.430604 28.4893134,102.021238 C30.3050753,100.611872 30.772043,98.1041046 29.5809555,96.1587671 L34,90.097528 L30.9944192,88 L26.5701202,94.0355341 C24.7975464,93.6493493 22.9610431,94.3401261 21.9093682,95.7886151 Z" id="Path" stroke="#000000" stroke-width="2" fill="#FFFFFF"></path>
                <path d="M9.21804911,78.5469662 C7.04586134,79.866249 6.35463394,82.6119536 7.65769562,84.7450275 C8.9607573,86.8781014 11.7859769,87.6256796 14.0352514,86.4325855 C15.6350599,85.5147341 16.5110684,83.7634812 16.2602372,81.9845545 L23,78.1563311 L21.072039,75 L14.3322762,78.8282234 C12.8400949,77.7542779 10.8271384,77.6435752 9.21804911,78.5469662 Z" id="Path" stroke="#000000" stroke-width="2" fill="#FFFFFF"></path>
                <path d="M3.88172284,57.0248007 C1.46014915,57.3655291 -0.248612286,59.574063 0.0296858605,62.0034677 C0.307984007,64.4328724 2.47192419,66.197823 4.9078259,65.9821712 C6.66313459,65.7726701 8.12339537,64.5346494 8.61718847,62.8373441 L16,62.0011177 L15.5946893,58.4099611 L8.20674725,59.2667085 C7.34470381,57.7201878 5.64244646,56.8378104 3.88172284,57.0248007 L3.88172284,57.0248007 Z" id="Path" stroke="#000000" stroke-width="2" fill="#FFFFFF"></path>
                <path d="M8.80433291,36.1856494 C6.43635567,35.4795736 3.95370717,36.8477444 3.2116555,39.267736 C2.46960383,41.6877277 3.7393673,44.2750383 6.07205941,45.0961866 C7.77253022,45.636544 9.62217058,45.0800136 10.7721896,43.6819844 L17.9101896,46 L19,42.4325952 L11.867165,40.1145796 C11.7010318,38.2924522 10.4964955,36.7473009 8.80433291,36.1856494 Z" id="Path" stroke="#000000" stroke-width="2" fill="#FFFFFF"></path>
                <path d="M20.8971559,18.2332406 C19.1582734,16.6466429 16.5025128,16.5837589 14.6892143,18.0862468 C12.8759159,19.5887346 12.46692,22.1910569 13.7331709,24.1692741 C14.9994218,26.1474913 17.5485787,26.8886639 19.6919222,25.9017932 L25.503827,31 L28,28.1906757 L22.1880951,23.0924689 C22.7759872,21.3625044 22.2683319,19.4516376 20.8971559,18.2332406 L20.8971559,18.2332406 Z" id="Path" stroke="#000000" stroke-width="2" fill="#FFFFFF"></path>
                <path d="M39.6916628,7.69035341 C38.6497653,5.38153053 35.9513687,4.36263976 33.6646253,5.41459719 C31.3778819,6.46655461 30.3687349,9.19100535 31.4106324,11.4998282 C32.1578601,13.1352708 33.799058,14.163214 35.5822014,14.1126367 L38.6875878,21 L42,19.4741198 L38.8946136,12.5867566 C40.1082606,11.2634305 40.4219701,9.33626171 39.6916628,7.69035341 L39.6916628,7.69035341 Z" id="Path" stroke="#000000" stroke-width="2" fill="#FFFFFF"></path>
                <path d="M60.9997823,4.47006551 C60.9860654,2.85938057 60.1157317,1.37837814 58.7166275,0.584937501 C57.3175233,-0.208503141 55.6022058,-0.193839486 54.2168185,0.623404809 C52.8314313,1.4406491 51.9864475,2.93631519 52.0001645,4.54700013 C52.0241644,6.3195813 53.1050031,7.90553703 54.7440753,8.57324504 L54.8106254,16 L58.3940909,15.9692262 L58.3275409,8.57324504 C59.9633254,7.8713677 61.0174068,6.25284439 60.9997823,4.47006551 Z" id="Path" stroke="#000000" stroke-width="2" fill="#FFFFFF"></path>
                <circle id="Oval" stroke="#000000" stroke-width="2" fill="#FFFFFF" cx="56.5" cy="56.5" r="40.5"></circle>
                <circle id="Oval" opacity="0.2" cx="56.5" cy="56.5" r="40.5"></circle>
                <path d="M48,74.8008064 C48.2089772,74.1535663 48.6681385,73.613575 49.278016,73.2978106 C50.0771681,72.8732734 51.0459298,72.9044835 51.8152766,73.3795521 C52.5846234,73.8546206 53.0361029,74.7004038 52.9977357,75.5947225 C52.9593686,76.4890412 52.4370619,77.2942018 51.6297749,77.7034993 C51.0268467,78.0159764 50.3241805,78.0845248 49.6708488,77.8946018" id="Path" stroke="#ED1C24" stroke-width="2" fill="#FFFFFF" stroke-linecap="round"></path>
                <path d="M71.6776735,79 C72.7878568,79.9899212 73.255806,81.6335567 72.8626452,83.1621218 C72.4694845,84.6906869 71.292936,85.8020062 69.8833118,85.9762776 C68.4736876,86.150549 67.1096502,85.3533215 66.4292067,83.9574858 C65.7487632,82.56165 65.8864275,80.8431427 66.7778092,79.6057687" id="Path" stroke="#000000" stroke-width="2" fill="#FFFFFF" stroke-linecap="round"></path>
                <path d="M84.7188699,60.2592304 C82.9626464,61.1287293 80.9470014,61.2372803 79.1140372,60.5610743 C76.5883789,59.7835871 74.6791357,57.620572 74.1472533,54.9341178 C73.615371,52.2476636 74.5473106,49.4744716 76.5716394,47.7198223 C78.5959683,45.9651729 81.3836179,45.5142962 83.8235457,46.5468931 C85.6414065,47.2068398 87.1399828,48.5800084 88,50.3738426" id="Path" stroke="#ED1C24" stroke-width="2" fill="#FFFFFF" stroke-linecap="round"></path>
                <path d="M61,30.5767191 C61.4191134,29.2780515 62.3463404,28.1972057 63.5767077,27.5731143 C65.1784978,26.7438301 67.1079856,26.8188591 68.6383517,27.7699386 C70.1687178,28.721018 71.0674632,30.4036564 70.9960393,32.18402 C70.9246153,33.9643836 69.893873,35.571993 68.2920829,36.4012771 C67.085274,37.0323159 65.6748119,37.1708147 64.3651803,36.786875" id="Path" stroke="#000000" stroke-width="2" fill="#FFFFFF" stroke-linecap="round"></path>
                <path d="M56,49.7761769 C55.8700324,50.7866537 55.1502742,51.6227081 54.1697562,51.9021458 C53.1892381,52.1815834 52.1363719,51.850709 51.4924652,51.0607785 C50.8939783,50.2426783 50.8362353,49.1483912 51.3453048,48.2719434 C51.8543744,47.3954956 52.8339343,46.9027218 53.8417531,47.0160892" id="Path" stroke="#000000" stroke-width="2" fill="#FFFFFF" stroke-linecap="round"></path>
                <path d="M30.8334826,71 C29.5862794,70.2813063 28.8699581,68.8326539 29.0196208,67.3317369 C29.1692835,65.8308199 30.1553383,64.5744079 31.5164986,64.1502632 C32.8776589,63.7261184 34.3447888,64.2181051 35.23155,65.3960669 C36.1183113,66.5740287 36.2493686,68.2050526 35.563412,69.526129" id="Path" stroke="#000000" stroke-width="2" fill="#FFFFFF" stroke-linecap="round"></path>
                <path d="M29.5563963,38.3323967 C31.1124952,37.2302432 33.0434763,36.7860316 34.9274894,37.0968064 C37.4555796,37.4377667 39.598357,39.1184959 40.5230056,41.4857586 C41.4476541,43.8530214 41.0083409,46.5334595 39.3758101,48.4852887 C37.7432794,50.4371179 35.1750094,51.3525011 32.6691889,50.8756638 C30.8005732,50.5771026 29.1241246,49.560748 28,48.0449467" id="Path" stroke="#ED1C24" stroke-width="2" fill="#FFFFFF" stroke-linecap="round"></path>
            </g>
            <text id="COVID-19-Crisis-Visu" font-family="Marmelad-Regular, Marmelad" font-size="36" font-weight="normal" line-spacing="36" fill="#000000">
                <tspan x="135" y="54">COVID-19 </tspan>
                <tspan x="135" y="90">Crisis Visualizations</tspan>
            </text>
        </g>
    </g>
</svg>